<?xml version="1.0" encoding="utf-8"?>
<!-- Generator: Adobe Illustrator 22.1.0, SVG Export Plug-In . SVG Version: 6.00 Build 0)  -->
<svg version="1.1" id="Layer_2_1_" xmlns="http://www.w3.org/2000/svg" xmlns:xlink="http://www.w3.org/1999/xlink" x="0px" y="0px"
	 viewBox="0 0 1606 314.4" style="enable-background:new 0 0 1606 314.4;" xml:space="preserve">
<style type="text/css">
	.st0{fill:#FFFFFF;}
</style>
<g>
	<path class="st0" d="M14.9,151.9v93.3H0V31.1h51c26.6,0,46.2,4.9,58.9,14.7s19,24.6,19,44.3c0,14.4-3.8,26.5-11.4,36.3
		c-7.6,9.9-19.1,17-34.5,21.2l58.2,97.6h-17.9l-55.2-93.3L14.9,151.9L14.9,151.9z M14.9,139.1h40.9c18.1,0,32.1-4,42.1-12.1
		s14.9-20,14.9-35.7c0-16.3-4.9-28.2-14.7-35.6S72.4,44.6,50.3,44.6H14.9V139.1z" style="fill: rgb(255, 255, 255);" />
	<path class="st0" d="M239,248.2c-23.2,0-41.2-7.1-54.1-21.4c-12.9-14.3-19.4-34.2-19.4-59.9c0-25.4,6.2-45.7,18.8-61
		C196.8,90.6,213.7,83,234.9,83c18.8,0,33.6,6.5,44.4,19.6s16.3,30.9,16.3,53.3v11.7H180.7c0.2,21.9,5.3,38.6,15.3,50.1
		s24.3,17.3,43,17.3c9.1,0,17.1-0.6,24-1.9c6.9-1.3,15.6-4,26.2-8.2v13.2c-9,3.9-17.3,6.6-24.9,8C256.6,247.5,248.2,248.2,239,248.2
		z M234.7,95.8c-15.3,0-27.6,5.1-36.9,15.2s-14.7,24.7-16.3,43.7H280c0-18.5-4-32.9-12-43.3S248.9,95.8,234.7,95.8z" style="fill: rgb(255, 255, 255);" />
	<path class="st0" d="M381.4,235.3c9.2,0,17.2-0.8,24-2.3v11.7c-7,2.3-15.1,3.5-24.3,3.5c-14.1,0-24.4-3.8-31.1-11.3
		s-10-19.3-10-35.5V98.6h-23.6v-8.5l23.6-6.6l7.3-36h7.5V86h46.7v12.6h-46.7v100.8c0,12.2,2.1,21.2,6.4,27.1
		C365.5,232.4,372.2,235.3,381.4,235.3z" style="fill: rgb(255, 255, 255);" />
	<path class="st0" d="M786.3,97.7c-7.7-17.8-18.2-33.8-31.9-47c-13.2-13.2-29.2-24.2-47-31.9C689.6,11,670.5,7.4,649.9,7.4
		c-20.5,0-39.7,3.6-57.5,11.4c-17.8,7.7-33.8,18.2-47,31.9c-9.8,9.8-18.4,21.2-25.3,33.6c-6.1-0.9-12-1.3-17.5-1.3
		c-10.5,0-19.5,2.4-26.9,7.1s-14.4,13-21,24.7h-1L452.2,86h-12.3v159.3h14.5v-87.9c0-17.6,4.4-32.1,13-43.7
		c8.7-11.5,19.8-17.3,33.4-17.3c4.3,0,8.6,0.3,12.8,0.9c-0.1,0.1-0.1,0.2-0.1,0.3c-8.2,17.8-11.9,37.4-11.9,57.9s3.6,39.7,11.4,57.5
		c7.7,17.8,18.2,33.8,31.9,47c13.2,13.2,29.2,24.2,47,31.9c17.8,7.8,37.4,11.4,57.5,11.4c20.5,0,39.7-3.6,57.5-11.4
		c17.8-7.7,33.8-18.2,47-31.9c13.2-13.2,24.2-29.2,32-47c7.7-17.8,11.4-37.4,11.4-57.5C798.2,135.1,794.1,115.4,786.3,97.7z
		 M771.7,207.1c-6.8,16-16.4,30.1-28.3,42c-11.9,11.9-26,21.4-42,28.3c-16,6.8-33.3,10.5-51.6,10.5s-35.6-3.6-51.6-10.5
		c-16-6.8-30.1-16.4-42-28.3c-11.9-11.9-21.5-26-28.3-42s-10.5-33.3-10.5-51.6s3.7-35.6,10.5-51.6s16.4-30.1,28.3-42
		c11.9-11.9,26-21.4,42-28.3c16-6.8,33.3-10.5,51.6-10.5c18.2,0,35.6,3.7,51.6,10.5s30.1,16.4,42,28.3s21.4,26,28.3,42
		c6.8,16,10.5,33.3,10.5,51.6S778.5,190.7,771.7,207.1z" style="fill: rgb(255, 255, 255);" />
	<path class="st0" d="M1070.5,274.2V37l113.6,118.6L1070.5,274.2z M1195.5,143.7l-141-143.3v13.2v283.8v16.9l266-277v252.3
		c0,4.6,3.7,7.8,8.2,7.8c4.6,0,7.8-3.7,7.8-7.8v-276V0L1195.5,143.7z" style="fill: rgb(255, 255, 255);" />
	<path class="st0" d="M1018.3,191.6c-5.9-9.1-13.7-16.9-23.7-23.3c-10-6.4-21.4-11.9-35.1-16c-13.2-4.1-27.4-7.3-42.9-9.6
		c-11.4-1.4-22.4-4.1-32.9-7.3s-19.6-7.3-27.4-11.9c-7.8-4.6-14.1-10.5-18.7-17.3c-4.6-6.8-6.8-14.6-6.8-23.3
		c0-9.1,2.3-17.3,6.8-24.6c4.6-7.3,10.5-13.7,18.3-19.2c7.8-5,16.9-9.1,27.4-11.9s21.4-4.1,33.8-4.1c11.9,0,23.3,1.8,33.8,4.6
		c10.5,3.2,19.6,7.3,27.4,12.8c7.8,5.5,13.7,11.9,18.3,19.2c3.2,5,5,10,5.9,15.5c0,4.6,3.7,8.2,8.2,8.2c4.6,0,8.2-3.7,8.2-8.2l0,0
		c-0.9-7.3-3.7-14.6-7.3-21.9c-5.5-9.1-12.8-17.3-21.9-24.2s-20.1-12.3-32.4-16C945,9,931.7,7.2,917.6,7.2s-27.4,1.8-39.7,5.5
		s-23.3,8.7-32.4,15.5s-16.4,14.6-21.9,24.2c-5.5,9.1-8.2,19.6-8.2,31s2.7,21.4,8.2,30.1s12.8,16,21.9,21.9
		c9.1,5.9,20.1,11,32.4,15.1c12.3,3.7,25.6,6.8,39.7,9.1c13.2,2.3,25.1,5,36.5,8.2s21.4,7.8,29.7,12.8c8.7,5,15.1,11.4,20.1,18.3
		c5,7.3,7.3,15.5,7.3,25.1s-2.3,18.3-7.3,26.5c-5,7.8-11.9,14.6-20.1,20.5c-8.7,5.5-18.3,10-29.7,12.8c-11.4,3.2-23.3,4.6-36.5,4.6
		s-25.1-1.8-36.5-5s-21.4-7.8-29.7-13.7c-8.2-5.9-15.1-12.8-20.1-20.5c-3.7-5.5-5.5-11-6.8-16.9c0-4.6-3.7-8.2-8.2-8.2
		c-4.6,0-8.2,3.7-8.2,8.2l0,0c0.9,8.2,3.7,16,8.2,23.3c5.9,9.6,13.7,18.3,23.7,25.6s21.4,12.8,35.1,17.3c13.2,4.1,27.4,6.4,42.9,6.4
		s29.2-1.8,42.9-5.9c13.2-3.7,25.1-9.1,35.1-16s17.8-15.5,23.7-25.6c5.9-10,8.7-21,8.7-32.9C1028.3,212.6,1024.2,200.8,1018.3,191.6
		" style="fill: rgb(255, 255, 255);" />
	<path class="st0" d="M1603.6,255.1c-3.2-3.2-8.2-3.2-11,0c-10.5,9.6-22.4,16.9-36,22.4c-16,6.8-32.9,10-51.1,10
		s-35.6-3.7-51.6-10.5s-30.1-16.4-42-28.3c-11.9-11.9-21.4-26-28.3-42s-10.5-33.3-10.5-51.6s3.7-35.6,10.5-51.6s16.4-30.1,28.3-42
		s26-21.4,42-28.3c16-6.8,33.3-10.5,51.6-10.5s35.6,3.2,51.1,10c13.2,5.5,25.1,13.2,36,22.4c3.2,3.2,8.2,3.2,11,0
		c3.2-3.2,3.2-8.2,0-11c-12.3-11-26-19.2-41.1-26c-17.8-7.8-37-11.4-57.5-11.4s-39.7,3.7-57.5,11.4s-33.8,18.3-47,31.9
		c-13.2,13.2-24.2,29.2-31.9,47s-11.4,37.4-11.4,57.5c0,20.5,3.7,39.7,11.4,57.5s18.3,33.8,31.9,47c13.2,13.2,29.2,24.2,47,31.9
		c17.8,7.8,37,11.4,57.5,11.4s39.7-3.7,57.5-11.4c15.1-6.4,28.7-15.1,41.1-26C1606.8,263.3,1606.8,258.2,1603.6,255.1" style="fill: rgb(255, 255, 255);" />
</g>
</svg>
